 http://s7.postimage.org/5xg3ka26z/1nra8bi7qbm3.jpg

Savages (2012) UNRATED WEBRIP AC3 XVID HS
 
http://www.imdb.com/title/tt1615065/



Storyline

Entrepreneurs Ben, a peaceful and charitable marijuana producer, and friend Chon, a former Navy SEAL, run a lucrative, homegrown industry - raising some of the best weed ever developed. They also share a one-of-a-kind love with Ophelia. Life is idyllic in their Southern California town... until the Mexican Baja Cartel decides to move in and demands that the trio partners with them. When the merciless head of the BC, Elena and her enforcer, Lado, underestimate the unbreakable bond of the three friends, Ben and Chon - with the reluctant assistance of a dirty DEA agent - wage a seemingly unwinnable war against the cartel. And so begins a series of increasingly vicious ploys and maneuvers in a high stakes, savage battle of wills.


Format/Info : Audio Video Interleave
 File size : 1.36 GiB
 Duration : 2h 11mn
 Overall bit rate : 1 486 Kbps
 Writing application : VirtualDubMod 1.5.10.2 (build 2542/release)
 Writing library : VirtualDubMod build 2542/release

 Video
 ID : 0
 Format : MPEG-4 Visual
 Format profile : Advanced Simple@L5
 Format settings, BVOP : 4
 Format settings, QPel : No
 Format settings, GMC : No warppoints
 Format settings, Matrix : Default (H.263)
 Muxing mode : Packed bitstream
 Codec ID : XVID
 Codec ID/Hint : XviD
 Duration : 2h 11mn
 Bit rate : 1 093 Kbps
 Width : 720 pixels
 Height : 304 pixels
 Display aspect ratio : 2.35:1
 Frame rate : 23.976 fps
 Color space : YUV
 Chroma subsampling : 4:2:0
 Bit depth : 8 bits
 Scan type : Progressive
 Compression mode : Lossy
 Bits/(Pixel*Frame) : 0.208
 Stream size : 1.00 GiB (74%)
 Writing library : XviD 64

 Audio
 ID : 1
 Format : AC-3
 Format/Info : Audio Coding 3
 Mode extension : CM (complete main)
 Format settings, Endianness : Big
 Codec ID : 2000
 Duration : 2h 11mn
 Bit rate mode : Constant
 Bit rate : 384 Kbps
 Channel(s) : 6 channels
 Channel positions : Front: L C R, Side: L R, LFE
 Sampling rate : 48.0 KHz
 Bit depth : 16 bits
 Compression mode : Lossy
 Stream size : 360 MiB (26%)
 Alignment : Split accross interleaves
 Interleave, duration : 42 ms (1.00 video frame)
 Interleave, preload duration : 500 ms

 
http://www.shotpix.com/images/76534309247345498963.png 
http://www.shotpix.com/images/34292859184778153128.png

